<?xml version="1.0"?>
<svg viewBox="0 0 512 512" width="512" height="512" xmlns="http://www.w3.org/2000/svg">
  <defs>
    <linearGradient id="bg" x1="0" y1="0" x2="1" y2="1">
      <stop offset="0%" stop-color="#7DD3FC"></stop>
      <stop offset="55%" stop-color="#3B82F6"></stop>
      <stop offset="100%" stop-color="#1E3A8A"></stop>
    </linearGradient>
    <linearGradient id="hl" x1="0" y1="0" x2="0" y2="1">
      <stop offset="0%" stop-color="#fff" stop-opacity="0.22"></stop>
      <stop offset="45%" stop-color="#fff" stop-opacity="0"></stop>
    </linearGradient>
    <linearGradient id="planeShade" x1="0" y1="0" x2="0" y2="1">
      <stop offset="0%" stop-color="#FFFFFF"></stop>
      <stop offset="100%" stop-color="#DBEAFE"></stop>
    </linearGradient>
    <clipPath id="tile"><rect width="512" height="512" rx="112"></rect></clipPath>
  </defs>

  <g clip-path="url(#tile)">
    <rect width="512" height="512" fill="url(#bg)"></rect>
    <rect width="512" height="512" fill="url(#hl)"></rect>
    <circle cx="120" cy="80" r="220" fill="#fff" opacity="0.12"></circle>
    <circle cx="80" cy="60" r="80" fill="#fff" opacity="0.10"></circle>

    <path d="M 87 301 L 370 262 L 425 66 L 512 153 L 512 512 L 298 512 Z" fill="#000" opacity="0.16"></path>

    <g transform="translate(256 240) rotate(-20)">
      <path d="M -180 0 L 180 -120 L 20 10 Z" fill="url(#planeShade)"></path>
      <path d="M 20 10 L 180 -120 L 100 60 Z" fill="#BFDBFE"></path>
      <path d="M -180 0 L 20 10" stroke="#93C5FD" stroke-width="3" fill="none" opacity="0.7" stroke-linecap="round"></path>
      <path d="M 180 -120 L 165 -108 L 175 -100 Z" fill="#FFFFFF" opacity="0.9"></path>
    </g>

    <g stroke="#FFFFFF" stroke-linecap="round" fill="none">
      <path d="M 40 380 L 200 290" stroke-width="20" opacity="0.16"></path>
      <path d="M 70 420 L 240 320" stroke-width="14" opacity="0.12"></path>
      <path d="M 20 340 L 150 260" stroke-width="12" opacity="0.10"></path>
    </g>
  </g>
</svg>